<svg width="509" height="475" viewBox="0 0 509 475" fill="none" xmlns="http://www.w3.org/2000/svg">
<g clip-path="url(#clip0_27_98)" filter="url(#filter0_d_27_98)">
<path d="M455.721 243.034C455.786 300.821 434.915 356.384 397.495 398.043C395.238 400.571 392.922 403.038 390.544 405.444C386.921 409.132 383.177 412.676 379.311 416.078C343.145 447.966 297.996 465.884 251.148 466.943C249.587 466.981 248.02 467 246.447 467C209.084 467 162.091 445.643 119.445 416.078C115.916 413.633 112.419 411.13 108.954 408.571C107.334 407.386 105.722 406.184 104.118 404.965C87.6696 392.536 72.0571 378.886 57.3952 364.117C47.7956 354.475 38.7936 344.174 30.4467 333.279C-2.32156 290.022 -9.54906 251.046 37.1676 243.034C42.6987 242.089 48.0668 241.078 53.2719 240.002C60.8117 238.451 68.0274 236.777 74.9191 234.978C84.2024 232.564 92.9241 229.946 101.084 227.124C103.829 226.178 106.511 225.214 109.131 224.23C147.854 209.675 173.772 190.694 191.413 170.1C194.406 166.614 197.164 163.086 199.689 159.516C203.553 154.082 207.062 148.37 210.192 142.42C214.512 134.154 218.141 125.494 221.036 116.543L221.195 116.052C235.232 72.7197 230.961 32.5271 246.447 19.0749C312.643 -38.4342 395.056 43.464 433.738 140.044C435.688 144.91 437.522 149.806 439.24 154.731C440.011 156.931 440.756 159.136 441.472 161.344C443.357 167.099 445.067 172.869 446.603 178.654C447.192 180.86 447.753 183.065 448.287 185.267C448.859 187.643 449.407 190.014 449.913 192.384C453.677 209.738 455.721 226.853 455.721 243.034Z" fill="#F2F2F2"/>
<path d="M251.148 466.943C249.587 466.981 248.02 467 246.447 467C209.085 467 162.091 445.643 119.445 416.078C115.916 413.633 112.419 411.13 108.954 408.571L111.993 388.777L204.007 375.703L250.188 413.494L251.148 466.943Z" fill="#2F2E41"/>
<path d="M255.577 113.499H242.465C242.059 113.499 241.67 113.672 241.383 113.979C241.095 114.286 240.934 114.703 240.934 115.138V129.176C240.934 129.391 240.974 129.604 241.051 129.802C241.128 130 241.241 130.181 241.383 130.332C241.525 130.484 241.694 130.604 241.88 130.686C242.066 130.768 242.264 130.809 242.465 130.809H255.577C255.982 130.809 256.371 130.637 256.658 130.331C256.945 130.025 257.107 129.61 257.109 129.176V115.138C257.108 114.703 256.946 114.287 256.659 113.98C256.372 113.673 255.983 113.5 255.577 113.499Z" fill="white"/>
<path d="M255.577 137.421H242.465C242.059 137.422 241.67 137.594 241.383 137.902C241.095 138.209 240.934 138.626 240.934 139.06V153.099C240.934 153.314 240.974 153.526 241.051 153.725C241.128 153.923 241.241 154.103 241.383 154.255C241.525 154.407 241.694 154.527 241.88 154.609C242.066 154.69 242.264 154.732 242.465 154.731H255.577C255.982 154.732 256.371 154.56 256.658 154.254C256.945 153.948 257.107 153.532 257.109 153.099V139.06C257.108 138.626 256.946 138.21 256.659 137.903C256.372 137.596 255.983 137.423 255.577 137.421Z" fill="#E6E6E6"/>
<path d="M255.577 161.344H242.465C242.059 161.344 241.67 161.517 241.383 161.824C241.095 162.132 240.934 162.548 240.934 162.983V177.015C240.933 177.231 240.973 177.444 241.05 177.643C241.126 177.842 241.239 178.023 241.381 178.175C241.524 178.327 241.693 178.448 241.879 178.53C242.065 178.612 242.264 178.654 242.465 178.654H255.577C255.983 178.654 256.373 178.481 256.66 178.174C256.947 177.867 257.109 177.45 257.109 177.015V162.983C257.108 162.549 256.946 162.133 256.659 161.825C256.372 161.518 255.983 161.345 255.577 161.344Z" fill="#E6E6E6"/>
<path d="M257.085 186.616C257.02 186.238 256.833 185.897 256.558 185.651C256.283 185.404 255.936 185.269 255.577 185.267H242.465C242.059 185.267 241.67 185.44 241.383 185.747C241.095 186.054 240.934 186.471 240.934 186.906V200.938C240.933 201.153 240.973 201.367 241.05 201.566C241.126 201.765 241.239 201.945 241.381 202.098C241.524 202.25 241.693 202.371 241.879 202.453C242.065 202.535 242.264 202.577 242.465 202.577H255.577C255.983 202.577 256.373 202.404 256.66 202.097C256.947 201.789 257.109 201.372 257.109 200.938V186.906C257.11 186.809 257.102 186.711 257.085 186.616Z" fill="#E6E6E6"/>
<path d="M256.172 209.316C255.984 209.232 255.781 209.189 255.577 209.189H242.465C242.264 209.189 242.065 209.231 241.879 209.313C241.693 209.396 241.524 209.516 241.381 209.669C241.239 209.821 241.126 210.002 241.05 210.201C240.973 210.4 240.933 210.613 240.934 210.828V224.861C240.933 225.076 240.972 225.29 241.049 225.489C241.125 225.688 241.238 225.869 241.38 226.022C241.523 226.174 241.692 226.295 241.878 226.377C242.064 226.459 242.264 226.501 242.465 226.5H255.577C255.983 226.499 256.373 226.327 256.66 226.019C256.947 225.712 257.109 225.295 257.109 224.861V210.828C257.108 210.506 257.019 210.191 256.852 209.922C256.686 209.653 256.449 209.442 256.172 209.316Z" fill="#E6E6E6"/>
<path d="M283.121 113.499H270.009C269.603 113.499 269.213 113.672 268.926 113.979C268.639 114.286 268.477 114.703 268.477 115.138V129.176C268.477 129.391 268.517 129.604 268.594 129.802C268.671 130 268.784 130.181 268.927 130.332C269.069 130.484 269.238 130.604 269.423 130.686C269.609 130.768 269.808 130.809 270.009 130.809H283.121C283.526 130.809 283.915 130.637 284.202 130.331C284.489 130.025 284.651 129.61 284.652 129.176V115.138C284.651 114.703 284.489 114.287 284.202 113.98C283.915 113.673 283.527 113.5 283.121 113.499Z" fill="#E6E6E6"/>
<path d="M283.121 137.421H270.009C269.603 137.422 269.213 137.594 268.926 137.902C268.639 138.209 268.477 138.626 268.477 139.06V153.099C268.477 153.314 268.517 153.526 268.594 153.725C268.671 153.923 268.784 154.103 268.927 154.255C269.069 154.407 269.238 154.527 269.423 154.609C269.609 154.69 269.808 154.732 270.009 154.731H283.121C283.526 154.732 283.915 154.56 284.202 154.254C284.489 153.948 284.651 153.532 284.652 153.099V139.06C284.651 138.626 284.489 138.21 284.202 137.903C283.915 137.596 283.527 137.423 283.121 137.421Z" fill="#608AF5"/>
<path d="M283.121 161.344H270.009C269.603 161.344 269.213 161.517 268.926 161.824C268.639 162.132 268.477 162.548 268.477 162.983V177.015C268.477 177.231 268.516 177.444 268.593 177.643C268.67 177.842 268.783 178.023 268.925 178.175C269.067 178.327 269.236 178.448 269.422 178.53C269.608 178.612 269.807 178.654 270.009 178.654H283.121C283.527 178.654 283.916 178.481 284.203 178.174C284.491 177.867 284.652 177.45 284.652 177.015V162.983C284.651 162.549 284.489 162.133 284.202 161.825C283.915 161.518 283.527 161.345 283.121 161.344Z" fill="#608AF5"/>
<path d="M283.121 185.267H270.009C269.688 185.267 269.375 185.376 269.115 185.577C268.855 185.778 268.66 186.062 268.56 186.389C268.505 186.555 268.477 186.73 268.477 186.906V200.938C268.477 201.153 268.516 201.367 268.593 201.566C268.67 201.765 268.783 201.945 268.925 202.098C269.067 202.25 269.236 202.371 269.422 202.453C269.608 202.535 269.807 202.577 270.009 202.577H283.121C283.527 202.577 283.916 202.404 284.203 202.097C284.491 201.789 284.652 201.372 284.652 200.938V186.906C284.651 186.471 284.489 186.055 284.202 185.748C283.915 185.441 283.527 185.268 283.121 185.267Z" fill="#608AF5"/>
<path d="M283.121 209.189H270.009C269.807 209.189 269.608 209.231 269.422 209.313C269.236 209.396 269.067 209.516 268.925 209.669C268.783 209.821 268.67 210.002 268.593 210.201C268.516 210.4 268.477 210.613 268.477 210.828V224.861C268.477 225.076 268.516 225.289 268.593 225.488C268.67 225.687 268.783 225.868 268.925 226.02C269.067 226.173 269.236 226.293 269.422 226.376C269.608 226.458 269.807 226.5 270.009 226.5H283.121C283.527 226.499 283.916 226.327 284.203 226.019C284.491 225.712 284.652 225.295 284.652 224.861V210.828C284.652 210.394 284.491 209.977 284.203 209.67C283.916 209.362 283.527 209.19 283.121 209.189Z" fill="#E6E6E6"/>
<path d="M310.664 113.499H297.552C297.146 113.499 296.757 113.672 296.47 113.979C296.183 114.286 296.021 114.703 296.021 115.138V129.176C296.021 129.391 296.061 129.604 296.138 129.802C296.215 130 296.328 130.181 296.47 130.332C296.613 130.484 296.781 130.604 296.967 130.686C297.153 130.768 297.352 130.809 297.552 130.809H310.664C311.07 130.809 311.458 130.637 311.745 130.331C312.032 130.025 312.194 129.61 312.196 129.176V115.138C312.195 114.703 312.033 114.287 311.746 113.98C311.459 113.673 311.07 113.5 310.664 113.499Z" fill="#608AF5"/>
<path d="M310.664 137.421H297.552C297.146 137.422 296.757 137.594 296.47 137.902C296.183 138.209 296.021 138.626 296.021 139.06V153.099C296.021 153.314 296.061 153.526 296.138 153.725C296.215 153.923 296.328 154.103 296.47 154.255C296.613 154.407 296.781 154.527 296.967 154.609C297.153 154.69 297.352 154.732 297.552 154.731H310.664C311.07 154.732 311.458 154.56 311.745 154.254C312.032 153.948 312.194 153.532 312.196 153.099V139.06C312.195 138.626 312.033 138.21 311.746 137.903C311.459 137.596 311.07 137.423 310.664 137.421Z" fill="#608AF5"/>
<path d="M310.664 161.344H297.552C297.146 161.344 296.757 161.517 296.47 161.824C296.183 162.132 296.021 162.548 296.021 162.983V177.015C296.021 177.231 296.06 177.444 296.137 177.643C296.214 177.842 296.326 178.023 296.469 178.175C296.611 178.327 296.78 178.448 296.966 178.53C297.152 178.612 297.351 178.654 297.552 178.654H310.664C311.07 178.654 311.46 178.481 311.747 178.174C312.034 177.867 312.196 177.45 312.196 177.015V162.983C312.195 162.549 312.033 162.133 311.746 161.825C311.459 161.518 311.07 161.345 310.664 161.344Z" fill="#E6E6E6"/>
<path d="M310.664 185.267H297.552C297.146 185.267 296.757 185.44 296.47 185.747C296.183 186.054 296.021 186.471 296.021 186.906V200.938C296.021 201.153 296.06 201.367 296.137 201.566C296.214 201.765 296.326 201.945 296.469 202.098C296.611 202.25 296.78 202.371 296.966 202.453C297.152 202.535 297.351 202.577 297.552 202.577H310.664C311.07 202.577 311.46 202.404 311.747 202.097C312.034 201.789 312.196 201.372 312.196 200.938V186.906C312.195 186.471 312.033 186.055 311.746 185.748C311.459 185.441 311.07 185.268 310.664 185.267Z" fill="#608AF5"/>
<path d="M310.664 209.189H297.552C297.351 209.189 297.152 209.231 296.966 209.313C296.78 209.396 296.611 209.516 296.469 209.669C296.326 209.821 296.214 210.002 296.137 210.201C296.06 210.4 296.021 210.613 296.021 210.828V224.861C296.021 225.076 296.06 225.289 296.137 225.488C296.214 225.687 296.326 225.868 296.469 226.02C296.611 226.173 296.78 226.293 296.966 226.376C297.152 226.458 297.351 226.5 297.552 226.5H310.664C311.07 226.499 311.46 226.327 311.747 226.019C312.034 225.712 312.196 225.295 312.196 224.861V210.828C312.196 210.394 312.034 209.977 311.747 209.67C311.46 209.362 311.07 209.19 310.664 209.189Z" fill="#608AF5"/>
<path d="M338.208 113.499H325.096C324.69 113.499 324.3 113.672 324.013 113.979C323.726 114.286 323.564 114.703 323.564 115.138V129.176C323.564 129.391 323.604 129.604 323.681 129.802C323.758 130 323.871 130.181 324.014 130.332C324.156 130.484 324.325 130.604 324.51 130.686C324.696 130.768 324.895 130.809 325.096 130.809H338.208C338.613 130.809 339.002 130.637 339.289 130.331C339.576 130.025 339.738 129.61 339.739 129.176V115.138C339.738 114.703 339.576 114.287 339.289 113.98C339.002 113.673 338.614 113.5 338.208 113.499Z" fill="#608AF5"/>
<path d="M338.208 137.421H325.096C324.69 137.422 324.3 137.594 324.013 137.902C323.726 138.209 323.564 138.626 323.564 139.06V153.099C323.564 153.314 323.604 153.526 323.681 153.725C323.758 153.923 323.871 154.103 324.014 154.255C324.156 154.407 324.325 154.527 324.51 154.609C324.696 154.69 324.895 154.732 325.096 154.731H338.208C338.613 154.732 339.002 154.56 339.289 154.254C339.576 153.948 339.738 153.532 339.739 153.099V139.06C339.738 138.626 339.576 138.21 339.289 137.903C339.002 137.596 338.614 137.423 338.208 137.421Z" fill="white"/>
<path d="M338.208 161.344H325.096C324.69 161.344 324.3 161.517 324.013 161.824C323.726 162.132 323.564 162.548 323.564 162.983V177.015C323.564 177.231 323.603 177.444 323.68 177.643C323.757 177.842 323.87 178.023 324.012 178.175C324.154 178.327 324.323 178.448 324.509 178.53C324.695 178.612 324.894 178.654 325.096 178.654H338.208C338.614 178.654 339.003 178.481 339.29 178.174C339.578 177.867 339.739 177.45 339.739 177.015V162.983C339.738 162.549 339.576 162.133 339.289 161.825C339.002 161.518 338.614 161.345 338.208 161.344Z" fill="white"/>
<path d="M338.208 185.267H325.096C324.69 185.267 324.3 185.44 324.013 185.747C323.726 186.054 323.564 186.471 323.564 186.906V200.938C323.564 201.153 323.603 201.367 323.68 201.566C323.757 201.765 323.87 201.945 324.012 202.098C324.154 202.25 324.323 202.371 324.509 202.453C324.695 202.535 324.894 202.577 325.096 202.577H338.208C338.614 202.577 339.003 202.404 339.29 202.097C339.578 201.789 339.739 201.372 339.739 200.938V186.906C339.738 186.471 339.576 186.055 339.289 185.748C339.002 185.441 338.614 185.268 338.208 185.267Z" fill="#E6E6E6"/>
<path d="M338.208 209.189H325.096C324.894 209.189 324.695 209.231 324.509 209.313C324.323 209.396 324.154 209.516 324.012 209.669C323.87 209.821 323.757 210.002 323.68 210.201C323.603 210.4 323.564 210.613 323.564 210.828V224.861C323.564 225.076 323.603 225.289 323.68 225.488C323.757 225.687 323.87 225.868 324.012 226.02C324.154 226.173 324.323 226.293 324.509 226.376C324.695 226.458 324.894 226.5 325.096 226.5H338.208C338.614 226.499 339.003 226.327 339.29 226.019C339.578 225.712 339.739 225.295 339.739 224.861V210.828C339.739 210.394 339.578 209.977 339.29 209.67C339.003 209.362 338.614 209.19 338.208 209.189Z" fill="#608AF5"/>
<path d="M365.751 113.499H352.633C352.228 113.5 351.84 113.674 351.554 113.981C351.268 114.288 351.108 114.704 351.108 115.138V129.176C351.108 129.609 351.269 130.024 351.555 130.33C351.841 130.637 352.229 130.809 352.633 130.809H365.751C366.156 130.809 366.545 130.637 366.832 130.331C367.119 130.025 367.281 129.61 367.283 129.176V115.138C367.282 114.703 367.12 114.287 366.833 113.98C366.546 113.673 366.157 113.5 365.751 113.499Z" fill="white"/>
<path d="M365.751 137.421H352.633C352.228 137.423 351.84 137.596 351.554 137.903C351.268 138.211 351.108 138.627 351.108 139.06V153.099C351.108 153.532 351.269 153.947 351.555 154.253C351.841 154.559 352.229 154.731 352.633 154.731H365.751C366.156 154.732 366.545 154.56 366.832 154.254C367.119 153.948 367.281 153.532 367.283 153.099V139.06C367.282 138.626 367.12 138.21 366.833 137.903C366.546 137.596 366.157 137.423 365.751 137.421Z" fill="white"/>
<path d="M365.751 161.344H352.633C352.228 161.346 351.84 161.519 351.554 161.826C351.268 162.133 351.108 162.549 351.108 162.983V177.015C351.107 177.23 351.146 177.443 351.223 177.642C351.299 177.84 351.411 178.021 351.553 178.173C351.695 178.325 351.863 178.446 352.048 178.529C352.234 178.611 352.433 178.654 352.633 178.654H365.751C366.157 178.654 366.547 178.481 366.834 178.174C367.121 177.867 367.283 177.45 367.283 177.015V162.983C367.282 162.549 367.12 162.133 366.833 161.825C366.546 161.518 366.157 161.345 365.751 161.344Z" fill="white"/>
<path d="M365.751 185.267H352.633C352.228 185.268 351.84 185.442 351.554 185.749C351.268 186.056 351.108 186.472 351.108 186.906V200.938C351.107 201.153 351.146 201.366 351.223 201.564C351.299 201.763 351.411 201.944 351.553 202.096C351.695 202.248 351.863 202.369 352.048 202.452C352.234 202.534 352.433 202.577 352.633 202.577H365.751C366.157 202.577 366.547 202.404 366.834 202.097C367.121 201.789 367.283 201.373 367.283 200.938V186.906C367.282 186.471 367.12 186.055 366.833 185.748C366.546 185.441 366.157 185.268 365.751 185.267Z" fill="#608AF5"/>
<path d="M365.751 209.189H352.633C352.433 209.19 352.234 209.232 352.048 209.315C351.863 209.397 351.695 209.518 351.553 209.67C351.411 209.823 351.299 210.003 351.223 210.202C351.146 210.401 351.107 210.614 351.108 210.828V224.861C351.107 225.075 351.146 225.288 351.223 225.487C351.299 225.686 351.411 225.866 351.553 226.019C351.695 226.171 351.863 226.292 352.048 226.374C352.234 226.457 352.433 226.499 352.633 226.5H365.751C366.157 226.499 366.547 226.327 366.834 226.019C367.121 225.712 367.283 225.295 367.283 224.861V210.828C367.283 210.394 367.121 209.977 366.834 209.67C366.547 209.362 366.157 209.19 365.751 209.189Z" fill="#E6E6E6"/>
<path d="M393.295 113.499H380.177C379.772 113.5 379.383 113.674 379.097 113.981C378.811 114.288 378.651 114.704 378.651 115.138V129.176C378.651 129.609 378.812 130.024 379.098 130.33C379.384 130.637 379.772 130.809 380.177 130.809H393.295C393.7 130.809 394.089 130.637 394.376 130.331C394.663 130.025 394.825 129.61 394.826 129.176V115.138C394.825 114.703 394.663 114.287 394.376 113.98C394.089 113.673 393.7 113.5 393.295 113.499Z" fill="white"/>
<path d="M393.295 137.421H380.177C379.772 137.423 379.383 137.596 379.097 137.903C378.811 138.211 378.651 138.627 378.651 139.06V153.099C378.651 153.532 378.812 153.947 379.098 154.253C379.384 154.559 379.772 154.731 380.177 154.731H393.295C393.7 154.732 394.089 154.56 394.376 154.254C394.663 153.948 394.825 153.532 394.826 153.099V139.06C394.825 138.626 394.663 138.21 394.376 137.903C394.089 137.596 393.7 137.423 393.295 137.421Z" fill="white"/>
<path d="M393.295 161.344H380.177C379.772 161.346 379.383 161.519 379.097 161.826C378.811 162.133 378.651 162.549 378.651 162.983V177.015C378.651 177.23 378.69 177.443 378.766 177.642C378.842 177.84 378.955 178.021 379.096 178.173C379.238 178.325 379.406 178.446 379.592 178.529C379.777 178.611 379.976 178.654 380.177 178.654H393.295C393.701 178.654 394.09 178.481 394.377 178.174C394.665 177.867 394.826 177.45 394.826 177.015V162.983C394.825 162.549 394.663 162.133 394.376 161.825C394.089 161.518 393.7 161.345 393.295 161.344Z" fill="#608AF5"/>
<path d="M393.295 185.267H380.177C379.772 185.268 379.383 185.442 379.097 185.749C378.812 186.056 378.651 186.472 378.651 186.906V200.938C378.651 201.153 378.69 201.366 378.766 201.564C378.842 201.763 378.955 201.944 379.096 202.096C379.238 202.248 379.406 202.369 379.592 202.452C379.777 202.534 379.976 202.577 380.177 202.577H393.295C393.701 202.577 394.09 202.404 394.377 202.097C394.665 201.789 394.826 201.373 394.826 200.938V186.906C394.825 186.471 394.663 186.055 394.376 185.748C394.089 185.441 393.7 185.268 393.295 185.267Z" fill="#E6E6E6"/>
<path d="M393.295 209.189H380.177C379.976 209.19 379.777 209.232 379.592 209.315C379.406 209.397 379.238 209.518 379.096 209.67C378.955 209.823 378.842 210.003 378.766 210.202C378.69 210.401 378.651 210.614 378.651 210.828V224.861C378.651 225.075 378.69 225.288 378.766 225.487C378.842 225.686 378.955 225.866 379.096 226.019C379.238 226.171 379.406 226.292 379.592 226.374C379.777 226.457 379.976 226.499 380.177 226.5H393.295C393.701 226.499 394.09 226.327 394.377 226.019C394.665 225.712 394.826 225.295 394.826 224.861V210.828C394.826 210.394 394.665 209.977 394.377 209.67C394.09 209.362 393.701 209.19 393.295 209.189Z" fill="white"/>
<path d="M420.838 113.499H407.72C407.315 113.5 406.927 113.674 406.641 113.981C406.355 114.288 406.194 114.704 406.195 115.138V129.176C406.195 129.609 406.355 130.024 406.641 130.33C406.928 130.637 407.316 130.809 407.72 130.809H420.838C421.243 130.809 421.632 130.637 421.919 130.331C422.206 130.025 422.368 129.61 422.37 129.176V115.138C422.368 114.703 422.207 114.287 421.92 113.98C421.633 113.673 421.244 113.5 420.838 113.499Z" fill="#608AF5"/>
<path d="M420.838 137.421H407.72C407.315 137.423 406.927 137.596 406.641 137.903C406.355 138.211 406.194 138.627 406.195 139.06V153.099C406.195 153.532 406.355 153.947 406.641 154.253C406.928 154.559 407.316 154.731 407.72 154.731H420.838C421.243 154.732 421.632 154.56 421.919 154.254C422.206 153.948 422.368 153.532 422.37 153.099V139.06C422.368 138.626 422.207 138.21 421.92 137.903C421.633 137.596 421.244 137.423 420.838 137.421Z" fill="#608AF5"/>
<path d="M420.838 161.344H407.72C407.315 161.346 406.927 161.519 406.641 161.826C406.355 162.133 406.194 162.549 406.195 162.983V177.015C406.194 177.23 406.233 177.443 406.309 177.642C406.386 177.84 406.498 178.021 406.64 178.173C406.782 178.325 406.95 178.446 407.135 178.529C407.321 178.611 407.519 178.654 407.72 178.654H420.838C421.244 178.654 421.634 178.481 421.921 178.174C422.208 177.867 422.369 177.45 422.37 177.015V162.983C422.368 162.549 422.207 162.133 421.92 161.825C421.633 161.518 421.244 161.345 420.838 161.344Z" fill="#E6E6E6"/>
<path d="M420.838 185.267H407.72C407.315 185.268 406.927 185.442 406.641 185.749C406.355 186.056 406.194 186.472 406.195 186.906V200.938C406.194 201.153 406.233 201.366 406.309 201.564C406.386 201.763 406.498 201.944 406.64 202.096C406.782 202.248 406.95 202.369 407.135 202.452C407.321 202.534 407.519 202.577 407.72 202.577H420.838C421.244 202.577 421.634 202.404 421.921 202.097C422.208 201.789 422.369 201.373 422.37 200.938V186.906C422.368 186.471 422.207 186.055 421.92 185.748C421.633 185.441 421.244 185.268 420.838 185.267Z" fill="white"/>
<path d="M420.838 209.189H407.72C407.519 209.19 407.321 209.232 407.135 209.315C406.95 209.397 406.782 209.518 406.64 209.67C406.498 209.823 406.386 210.003 406.309 210.202C406.233 210.401 406.194 210.614 406.195 210.828V224.861C406.194 225.075 406.233 225.288 406.309 225.487C406.386 225.686 406.498 225.866 406.64 226.019C406.782 226.171 406.95 226.292 407.135 226.374C407.321 226.457 407.519 226.499 407.72 226.5H420.838C421.244 226.499 421.634 226.327 421.921 226.019C422.208 225.712 422.369 225.295 422.37 224.861V210.828C422.369 210.394 422.208 209.977 421.921 209.67C421.634 209.362 421.244 209.19 420.838 209.189Z" fill="#608AF5"/>
<path d="M448.382 113.499H435.264C434.858 113.5 434.47 113.674 434.184 113.981C433.898 114.288 433.738 114.704 433.738 115.138V129.176C433.738 129.609 433.899 130.024 434.185 130.33C434.471 130.637 434.859 130.809 435.264 130.809H448.382C448.787 130.809 449.176 130.637 449.463 130.331C449.75 130.025 449.912 129.61 449.913 129.176V115.138C449.912 114.703 449.75 114.287 449.463 113.98C449.176 113.673 448.787 113.5 448.382 113.499Z" fill="#608AF5"/>
<path d="M448.382 137.421H435.264C434.858 137.423 434.47 137.596 434.184 137.903C433.898 138.211 433.738 138.627 433.738 139.06V153.099C433.738 153.532 433.899 153.947 434.185 154.253C434.471 154.559 434.859 154.731 435.264 154.731H448.382C448.787 154.732 449.176 154.56 449.463 154.254C449.75 153.948 449.912 153.532 449.913 153.099V139.06C449.912 138.626 449.75 138.21 449.463 137.903C449.176 137.596 448.787 137.423 448.382 137.421Z" fill="#608AF5"/>
<path d="M448.382 161.344H435.264C434.858 161.346 434.47 161.519 434.184 161.826C433.898 162.133 433.738 162.549 433.738 162.983V177.015C433.737 177.23 433.777 177.443 433.853 177.642C433.929 177.84 434.042 178.021 434.183 178.173C434.325 178.325 434.493 178.446 434.679 178.529C434.864 178.611 435.063 178.654 435.264 178.654H448.382C448.788 178.654 449.177 178.481 449.464 178.174C449.751 177.867 449.913 177.45 449.913 177.015V162.983C449.912 162.549 449.75 162.133 449.463 161.825C449.176 161.518 448.787 161.345 448.382 161.344Z" fill="#E6E6E6"/>
<path d="M448.382 185.267H435.264C434.858 185.268 434.47 185.442 434.184 185.749C433.898 186.056 433.738 186.472 433.738 186.906V200.938C433.737 201.153 433.777 201.366 433.853 201.564C433.929 201.763 434.042 201.944 434.183 202.096C434.325 202.248 434.493 202.369 434.679 202.452C434.864 202.534 435.063 202.577 435.264 202.577H448.382C448.788 202.577 449.177 202.404 449.464 202.097C449.751 201.789 449.913 201.373 449.913 200.938V186.906C449.912 186.471 449.75 186.055 449.463 185.748C449.176 185.441 448.787 185.268 448.382 185.267Z" fill="#608AF5"/>
<path d="M448.382 209.189H435.264C435.063 209.19 434.864 209.232 434.679 209.315C434.493 209.397 434.325 209.518 434.183 209.67C434.042 209.823 433.929 210.003 433.853 210.202C433.777 210.401 433.737 210.614 433.738 210.828V224.861C433.737 225.075 433.777 225.288 433.853 225.487C433.929 225.686 434.042 225.866 434.183 226.019C434.325 226.171 434.493 226.292 434.679 226.374C434.864 226.457 435.063 226.499 435.264 226.5H448.382C448.788 226.499 449.177 226.327 449.464 226.019C449.751 225.712 449.913 225.295 449.913 224.861V210.828C449.913 210.394 449.751 209.977 449.464 209.67C449.177 209.362 448.788 209.19 448.382 209.189Z" fill="#608AF5"/>
<path d="M475.925 113.499H462.807C462.402 113.5 462.014 113.674 461.728 113.981C461.442 114.288 461.281 114.704 461.281 115.138V129.176C461.282 129.609 461.442 130.024 461.728 130.33C462.015 130.637 462.402 130.809 462.807 130.809H475.925C476.33 130.809 476.719 130.637 477.006 130.331C477.293 130.025 477.455 129.61 477.456 129.176V115.138C477.455 114.703 477.294 114.287 477.007 113.98C476.72 113.673 476.331 113.5 475.925 113.499Z" fill="#E6E6E6"/>
<path d="M475.925 137.421H462.807C462.402 137.423 462.014 137.596 461.728 137.903C461.442 138.211 461.281 138.627 461.281 139.06V153.099C461.282 153.532 461.442 153.947 461.728 154.253C462.015 154.559 462.402 154.731 462.807 154.731H475.925C476.33 154.732 476.719 154.56 477.006 154.254C477.293 153.948 477.455 153.532 477.456 153.099V139.06C477.455 138.626 477.294 138.21 477.007 137.903C476.72 137.596 476.331 137.423 475.925 137.421Z" fill="#608AF5"/>
<path d="M475.925 161.344H462.807C462.402 161.346 462.014 161.519 461.728 161.826C461.442 162.133 461.281 162.549 461.282 162.983V177.015C461.281 177.23 461.32 177.443 461.396 177.642C461.473 177.84 461.585 178.021 461.727 178.173C461.868 178.325 462.037 178.446 462.222 178.529C462.408 178.611 462.606 178.654 462.807 178.654H475.925C476.331 178.654 476.72 178.481 477.008 178.174C477.295 177.867 477.456 177.45 477.456 177.015V162.983C477.455 162.549 477.294 162.133 477.007 161.825C476.72 161.518 476.331 161.345 475.925 161.344Z" fill="#608AF5"/>
<path d="M475.925 185.267H462.807C462.402 185.268 462.014 185.442 461.728 185.749C461.442 186.056 461.281 186.472 461.282 186.906V200.938C461.281 201.153 461.32 201.366 461.396 201.564C461.473 201.763 461.585 201.944 461.727 202.096C461.868 202.248 462.037 202.369 462.222 202.452C462.408 202.534 462.606 202.577 462.807 202.577H475.925C476.331 202.577 476.721 202.404 477.008 202.097C477.295 201.789 477.456 201.373 477.456 200.938V186.906C477.455 186.471 477.294 186.055 477.007 185.748C476.72 185.441 476.331 185.268 475.925 185.267Z" fill="#608AF5"/>
<path d="M475.925 209.189H462.807C462.606 209.19 462.408 209.232 462.222 209.315C462.037 209.397 461.868 209.518 461.727 209.67C461.585 209.823 461.473 210.003 461.396 210.202C461.32 210.401 461.281 210.614 461.282 210.828V224.861C461.281 225.075 461.32 225.288 461.396 225.487C461.473 225.686 461.585 225.866 461.727 226.019C461.868 226.171 462.037 226.292 462.222 226.374C462.408 226.457 462.606 226.499 462.807 226.5H475.925C476.331 226.499 476.721 226.327 477.008 226.019C477.295 225.712 477.456 225.295 477.456 224.861V210.828C477.456 210.394 477.295 209.977 477.008 209.67C476.721 209.362 476.331 209.19 475.925 209.189Z" fill="#E6E6E6"/>
<path d="M503.469 113.499H490.351C489.945 113.5 489.557 113.674 489.271 113.981C488.985 114.288 488.825 114.704 488.825 115.138V129.176C488.825 129.609 488.986 130.024 489.272 130.33C489.558 130.637 489.946 130.809 490.351 130.809H503.469C503.874 130.809 504.263 130.637 504.55 130.331C504.837 130.025 504.999 129.61 505 129.176V115.138C504.999 114.703 504.837 114.287 504.55 113.98C504.263 113.673 503.874 113.5 503.469 113.499Z" fill="#E6E6E6"/>
<path d="M503.469 137.421H490.351C489.945 137.423 489.557 137.596 489.271 137.903C488.985 138.211 488.825 138.627 488.825 139.06V153.099C488.825 153.532 488.986 153.947 489.272 154.253C489.558 154.559 489.946 154.731 490.351 154.731H503.469C503.874 154.732 504.263 154.56 504.55 154.254C504.837 153.948 504.999 153.532 505 153.099V139.06C504.999 138.626 504.837 138.21 504.55 137.903C504.263 137.596 503.874 137.423 503.469 137.421Z" fill="#E6E6E6"/>
<path d="M503.469 161.344H490.351C489.945 161.346 489.557 161.519 489.271 161.826C488.985 162.133 488.825 162.549 488.825 162.983V177.015C488.824 177.23 488.863 177.443 488.94 177.642C489.016 177.84 489.129 178.021 489.27 178.173C489.412 178.325 489.58 178.446 489.766 178.529C489.951 178.611 490.15 178.654 490.351 178.654H503.469C503.875 178.654 504.264 178.481 504.551 178.174C504.838 177.867 505 177.45 505 177.015V162.983C504.999 162.549 504.837 162.133 504.55 161.825C504.263 161.518 503.874 161.345 503.469 161.344Z" fill="#608AF5"/>
<path d="M503.469 185.267H490.351C489.945 185.268 489.557 185.442 489.271 185.749C488.985 186.056 488.825 186.472 488.825 186.906V200.938C488.824 201.153 488.863 201.366 488.94 201.564C489.016 201.763 489.129 201.944 489.27 202.096C489.412 202.248 489.58 202.369 489.766 202.452C489.951 202.534 490.15 202.577 490.351 202.577H503.469C503.875 202.577 504.264 202.404 504.551 202.097C504.838 201.789 505 201.373 505 200.938V186.906C504.999 186.471 504.837 186.055 504.55 185.748C504.263 185.441 503.874 185.268 503.469 185.267Z" fill="#E6E6E6"/>
<path d="M503.469 209.189H490.351C490.15 209.19 489.951 209.232 489.766 209.315C489.58 209.397 489.412 209.518 489.27 209.67C489.129 209.823 489.016 210.003 488.94 210.202C488.863 210.401 488.824 210.614 488.825 210.828V224.861C488.824 225.075 488.863 225.288 488.94 225.487C489.016 225.686 489.129 225.866 489.27 226.019C489.412 226.171 489.58 226.292 489.766 226.374C489.951 226.457 490.15 226.499 490.351 226.5H503.469C503.875 226.499 504.264 226.327 504.551 226.019C504.838 225.712 505 225.295 505 224.861V210.828C505 210.394 504.838 209.977 504.551 209.67C504.264 209.362 503.875 209.19 503.469 209.189Z" fill="#E6E6E6"/>
<path d="M201.973 416.078H201.608L201.92 416.035L201.973 416.078Z" fill="#2F2E41"/>
<path d="M170.589 154.476C192.815 154.476 210.833 135.194 210.833 111.408C210.833 87.6218 192.815 68.3395 170.589 68.3395C148.362 68.3395 130.344 87.6218 130.344 111.408C130.344 135.194 148.362 154.476 170.589 154.476Z" fill="#FFB6B6"/>
<path d="M205.832 79.8308C205.832 79.8308 216.357 58.2967 193.2 56.339C193.2 56.339 173.459 37.1742 153.337 52.8354C153.337 52.8354 142.361 52.8354 136.359 66.1272C136.359 66.1272 127.727 62.6236 125.83 72.0002C125.83 72.0002 119.513 91.5767 125.83 109.196C132.146 126.815 134.244 128.772 134.244 128.772C134.244 128.772 123.865 91.8332 149.129 89.8755C174.394 87.9178 202.665 71.0214 204.771 92.5555C206.876 114.09 210.045 119.396 210.045 119.396C210.045 119.396 230.042 88.6403 205.832 79.8308Z" fill="#2F2E41"/>
<path d="M274.692 217.548L274.562 218.279L273.107 226.5L263.052 283.359L262.457 286.707L261.209 293.786L259.5 303.443L255.713 324.844L254.629 330.978L254.223 333.279L254.081 334.085L252.956 340.433L252.615 342.35L249.87 364.117L247.472 383.084L255.495 391.67L250.712 396.789L247.572 416.034L247.578 416.078H119.445C114.261 412.485 109.152 408.781 104.118 404.965L105.172 396.518C105.172 396.518 108.801 381.433 107.275 379.63C105.755 377.827 102.421 374.606 102.421 374.606L106.621 364.117L107.204 362.66L106.227 340.957L106.203 340.433L105.879 333.279L105.838 332.358L105.773 330.978L104.53 303.443L104.507 302.989L104.13 294.643L103.776 286.707L103.623 283.359L102.109 249.867L101.084 227.124L100.189 207.324L103.788 206.019L142.282 192.018L158.227 169.835L191.413 170.1L207.659 170.232L234.767 197.137L240.934 200.288L240.981 200.314L245.405 202.577L256.62 208.307L268.477 214.371L274.562 217.479L274.692 217.548Z" fill="#CACACA"/>
<path d="M162.516 351.466C160.084 352.474 157.475 352.899 154.873 352.712C152.27 352.524 149.738 351.729 147.455 350.381C145.171 349.032 143.191 347.165 141.655 344.91C140.119 342.654 139.063 340.066 138.563 337.326L75.7957 327.797L97.6153 301.383L153.875 314.482C158.231 313.887 162.639 315.023 166.264 317.674C169.89 320.326 172.48 324.308 173.545 328.867C174.61 333.425 174.076 338.244 172.043 342.409C170.01 346.574 166.62 349.797 162.516 351.466V351.466Z" fill="#FFB6B6"/>
<path d="M134.53 303.443C133.367 301.866 131.721 300.778 129.882 300.373L104.13 294.643L101.485 294.057C99.9478 293.713 98.4958 293.027 97.2239 292.041C95.9521 291.056 94.8889 289.795 94.1041 288.339C93.29 286.811 92.7975 285.112 92.661 283.359C92.5382 281.766 92.7165 280.162 93.1852 278.644L102.109 249.868L107.899 231.196C108.601 228.944 109.015 226.601 109.131 224.23C109.453 217.67 107.556 211.205 103.788 206.019C100.475 201.461 95.8794 198.164 90.6809 196.615C85.4823 195.067 79.9563 195.349 74.9191 197.42C74.7718 197.477 74.6187 197.54 74.4714 197.603C70.859 199.147 67.6316 201.568 65.0441 204.677C62.4567 207.785 60.5802 211.494 59.5628 215.512L53.2719 240.002L40.2954 290.489C38.9964 295.547 38.7339 300.846 39.5261 306.023C40.3182 311.2 42.1461 316.133 44.8848 320.483C47.6234 324.834 51.2082 328.5 55.3936 331.231C59.579 333.962 64.2663 335.692 69.1347 336.304L106.227 340.957L123.391 343.113C125.376 343.368 127.378 342.813 128.998 341.56C130.618 340.306 131.737 338.446 132.132 336.349C132.16 336.234 132.182 336.119 132.197 336.002L132.61 333.279L136.103 310.346L136.138 310.112C136.32 308.942 136.271 307.744 135.994 306.595C135.717 305.447 135.218 304.373 134.53 303.443Z" fill="#CACACA"/>
<path d="M202.496 352.201C205.036 352.832 207.675 352.859 210.227 352.281C212.778 351.703 215.18 350.533 217.263 348.854C219.346 347.174 221.06 345.027 222.284 342.562C223.508 340.097 224.211 337.375 224.346 334.588L285.23 315.681L260.148 292.824L206.177 314.283C201.786 314.351 197.572 316.141 194.332 319.313C191.092 322.485 189.052 326.818 188.598 331.492C188.145 336.166 189.309 340.856 191.87 344.673C194.432 348.489 198.212 351.168 202.496 352.201V352.201Z" fill="#FFB6B6"/>
<path d="M315.459 273.387L286.502 202.066C284.133 196.211 279.903 191.443 274.562 188.608C272.911 187.738 271.177 187.062 269.39 186.591C269.114 186.515 268.837 186.446 268.56 186.389C264.771 185.504 260.841 185.582 257.085 186.616C253.652 187.56 250.444 189.267 247.669 191.628C244.894 193.988 242.615 196.948 240.981 200.314C240.963 200.342 240.947 200.371 240.934 200.402C239.109 204.181 238.138 208.366 238.1 212.619C238.062 216.873 238.958 221.077 240.716 224.892L241.075 225.661L261.539 269.642C262.237 271.146 262.631 272.791 262.694 274.47C262.757 276.148 262.487 277.821 261.903 279.38C261.319 280.939 260.434 282.349 259.305 283.516C258.176 284.683 256.83 285.581 255.354 286.152L253.916 286.707L228.069 296.698C226.13 297.439 224.535 298.956 223.619 300.93C222.704 302.904 222.54 305.181 223.163 307.282L223.227 307.503L230.473 332.314C230.508 332.428 230.543 332.541 230.584 332.655C230.648 332.869 230.727 333.077 230.82 333.279C231.59 335.127 232.951 336.62 234.658 337.49C236.365 338.361 238.307 338.55 240.133 338.025L254.081 334.086L256.926 333.279L292.946 323.098C297.686 321.758 302.098 319.337 305.883 316.002C309.667 312.667 312.733 308.497 314.871 303.776C317.009 299.055 318.168 293.895 318.27 288.65C318.371 283.405 317.413 278.198 315.459 273.387L315.459 273.387Z" fill="#CACACA"/>
<path d="M30.4468 333.279C38.7937 344.174 47.7957 354.475 57.3953 364.117H323.623C326.188 364.121 328.647 365.214 330.46 367.155C332.273 369.097 333.293 371.729 333.295 374.474L333.678 446.67C350.056 438.618 365.394 428.335 379.311 416.078C383.175 412.681 386.919 409.136 390.544 405.444C392.918 403.036 395.235 400.569 397.495 398.043C414.438 379.154 428.158 357.235 438.032 333.279H30.4468Z" fill="#3F3D56"/>
<path d="M397.494 398.043C395.238 400.571 392.922 403.038 390.544 405.444H333.872V398.043H397.494Z" fill="white"/>
<path d="M274.162 161.344C273.882 160.791 273.467 160.329 272.962 160.007C272.457 159.686 271.881 159.516 271.293 159.516H78.1825C77.3167 159.518 76.4871 159.888 75.8754 160.544C75.2637 161.199 74.9199 162.088 74.9192 163.015V286.707H274.562V163.015C274.565 162.43 274.427 161.855 274.162 161.344Z" fill="#3F3D56"/>
<path d="M74.7441 283.358V298.622C74.7441 299.254 74.8606 299.881 75.0869 300.465C75.3131 301.05 75.6448 301.581 76.0629 302.029C76.481 302.476 76.9773 302.831 77.5236 303.073C78.0699 303.315 78.6554 303.44 79.2467 303.44H152.933V333.563H151.955C151.878 333.563 151.802 333.58 151.731 333.611C151.66 333.643 151.595 333.689 151.541 333.747C151.487 333.805 151.444 333.874 151.414 333.95C151.385 334.026 151.37 334.107 151.37 334.189V336.285C151.37 336.367 151.385 336.448 151.414 336.524C151.444 336.6 151.487 336.669 151.541 336.727C151.595 336.785 151.66 336.831 151.731 336.863C151.802 336.894 151.878 336.911 151.955 336.911H197.698C197.775 336.911 197.851 336.894 197.922 336.863C197.993 336.831 198.058 336.785 198.112 336.727C198.166 336.669 198.209 336.6 198.239 336.524C198.268 336.448 198.283 336.367 198.283 336.285V334.189C198.283 334.107 198.268 334.026 198.239 333.95C198.209 333.874 198.166 333.805 198.112 333.747C198.058 333.689 197.993 333.643 197.922 333.611C197.851 333.58 197.775 333.563 197.698 333.563H196.72V303.44H270.406C270.998 303.44 271.583 303.315 272.129 303.073C272.676 302.831 273.172 302.476 273.59 302.029C274.008 301.581 274.34 301.05 274.566 300.465C274.792 299.881 274.909 299.254 274.909 298.622V283.358H74.7441Z" fill="#3F3D56"/>
<path d="M172.408 239.549C182.593 239.549 190.849 230.713 190.849 219.814C190.849 208.915 182.593 200.079 172.408 200.079C162.223 200.079 153.967 208.915 153.967 219.814C153.967 230.713 162.223 239.549 172.408 239.549Z" fill="#608AF5"/>
<path d="M219.393 109.055H216.447C216.447 85.2264 194.412 69.612 172.181 69.5994C168.948 69.5893 165.721 69.925 162.55 70.6017C158.981 71.3644 155.276 72.2785 151.636 73.4699C137.281 78.1788 123.968 87.2814 123.968 109.055C123.965 113.283 124.468 117.495 125.465 121.586L122.614 122.381C121.556 118.029 121.022 113.551 121.023 109.055C121.023 90.0298 128.321 76.9622 140.927 69.1707C147.554 65.0733 155.641 62.432 164.907 61.1461C168.762 60.5971 172.66 60.4704 176.54 60.7679C202.104 62.7346 219.393 83.7135 219.393 109.055Z" fill="#608AF5"/>
<path d="M224.299 110.801L223.139 101.622C222.853 99.3045 221.809 97.1697 220.194 95.596C219.156 94.57 217.915 93.8099 216.563 93.3731C215.211 92.9362 213.783 92.8341 212.389 93.0745L210.545 93.3455C210.041 93.4166 209.554 93.5942 209.115 93.868C208.675 94.1417 208.29 94.5063 207.983 94.9404C207.673 95.3731 207.447 95.8671 207.316 96.394C207.186 96.9209 207.154 97.4703 207.223 98.0103L209.903 119.153C210.014 120.015 210.375 120.818 210.935 121.448C211.495 122.078 212.226 122.503 213.025 122.664C213.262 122.715 213.502 122.74 213.744 122.74C213.917 122.74 214.09 122.727 214.262 122.702L216.324 122.406C217.581 122.227 218.79 121.776 219.878 121.079C220.966 120.382 221.909 119.454 222.65 118.353C222.809 118.113 222.962 117.867 223.104 117.615C224.208 115.552 224.629 113.151 224.299 110.801Z" fill="#608AF5"/>
<path d="M209.355 93.7301C208.815 94.0113 208.344 94.4262 207.983 94.9404C207.673 95.3731 207.447 95.8671 207.316 96.394C207.186 96.921 207.154 97.4703 207.223 98.0103L209.903 119.153C210.014 120.015 210.375 120.818 210.935 121.448C211.495 122.078 212.226 122.503 213.025 122.664L209.355 93.7301Z" fill="white"/>
<path d="M224.299 110.801L223.139 101.622C222.853 99.3045 221.81 97.1697 220.194 95.5959L222.862 116.632C222.902 116.969 222.983 117.3 223.104 117.615C224.208 115.552 224.629 113.151 224.299 110.801Z" fill="#3F3D56"/>
<path d="M215.128 117.414C215.934 117.297 216.339 115.244 216.033 112.829C215.727 110.414 214.826 108.552 214.02 108.669C213.214 108.786 212.809 110.838 213.115 113.253C213.421 115.668 214.322 117.531 215.128 117.414Z" fill="#3F3D56"/>
<path d="M213.361 106.067C214.167 105.95 214.572 103.897 214.266 101.483C213.96 99.0677 213.058 97.2048 212.252 97.3218C211.447 97.4388 211.041 99.4914 211.347 101.906C211.654 104.321 212.555 106.184 213.361 106.067Z" fill="#3F3D56"/>
<path d="M224.553 110.48C225.359 110.363 225.764 108.31 225.458 105.895C225.152 103.48 224.25 101.617 223.444 101.734C222.638 101.851 222.233 103.904 222.539 106.319C222.846 108.734 223.747 110.597 224.553 110.48Z" fill="#3F3D56"/>
<path d="M172.181 69.5994C168.948 69.5893 165.721 69.9251 162.55 70.6017C158.981 71.3645 155.276 72.2785 151.635 73.4699C145.951 73.1736 141.769 71.5977 140.927 69.1707C147.553 65.0733 155.641 62.432 164.907 61.1461C168.762 60.5971 172.66 60.4704 176.54 60.7679C176.951 61.0255 177.306 61.3733 177.582 61.7883C177.858 62.2034 178.049 62.6762 178.142 63.1759C178.419 65.3696 176.081 67.702 172.181 69.5994Z" fill="#3F3D56"/>
<path d="M134.577 130.928L130.041 110.75C129.88 110.022 129.52 109.362 129.009 108.851C128.498 108.341 127.857 108.004 127.167 107.882C126.972 107.85 126.775 107.833 126.578 107.832C126.3 107.833 126.023 107.869 125.753 107.939L123.998 108.393C121.738 108.978 119.787 110.498 118.573 112.621C117.36 114.743 116.982 117.294 117.524 119.714L119.556 128.766C120.02 130.897 121.126 132.806 122.702 134.2C122.957 134.421 123.225 134.625 123.503 134.812C124.49 135.474 125.592 135.918 126.742 136.117C127.892 136.316 129.068 136.267 130.2 135.972L131.95 135.518C132.412 135.402 132.848 135.185 133.228 134.881C133.794 134.44 134.224 133.828 134.464 133.124C134.704 132.42 134.744 131.656 134.577 130.928Z" fill="#608AF5"/>
<path d="M125.069 127.174C125.859 126.97 126.068 124.885 125.536 122.515C125.003 120.146 123.93 118.39 123.139 118.594C122.349 118.797 122.139 120.883 122.672 123.253C123.205 125.622 124.278 127.378 125.069 127.174Z" fill="#3F3D56"/>
<path d="M119.178 129.065C119.969 128.862 120.178 126.776 119.645 124.406C119.113 122.037 118.04 120.281 117.249 120.485C116.458 120.689 116.249 122.774 116.782 125.144C117.315 127.513 118.388 129.269 119.178 129.065Z" fill="#3F3D56"/>
<path d="M134.865 130.853L130.33 110.675C130.153 109.887 129.763 109.173 129.209 108.621C128.655 108.069 127.961 107.705 127.214 107.573L133.405 135.133C134.016 134.654 134.481 133.992 134.741 133.23C135.001 132.468 135.044 131.641 134.865 130.853Z" fill="white"/>
<path d="M118.549 115.718C118.424 115.156 118.189 114.63 117.86 114.173C117.223 115.94 117.105 117.874 117.524 119.714L119.557 128.766C120.021 130.897 121.126 132.806 122.702 134.2L118.549 115.718Z" fill="#3F3D56"/>
</g>
<defs>
<filter id="filter0_d_27_98" x="0" y="0" width="509" height="475" filterUnits="userSpaceOnUse" color-interpolation-filters="sRGB">
<feFlood flood-opacity="0" result="BackgroundImageFix"/>
<feColorMatrix in="SourceAlpha" type="matrix" values="0 0 0 0 0 0 0 0 0 0 0 0 0 0 0 0 0 0 127 0" result="hardAlpha"/>
<feOffset dy="4"/>
<feGaussianBlur stdDeviation="2"/>
<feComposite in2="hardAlpha" operator="out"/>
<feColorMatrix type="matrix" values="0 0 0 0 0 0 0 0 0 0 0 0 0 0 0 0 0 0 0.25 0"/>
<feBlend mode="normal" in2="BackgroundImageFix" result="effect1_dropShadow_27_98"/>
<feBlend mode="normal" in="SourceGraphic" in2="effect1_dropShadow_27_98" result="shape"/>
</filter>
<clipPath id="clip0_27_98">
<rect width="501" height="467" fill="white" transform="translate(4)"/>
</clipPath>
</defs>
</svg>
